<?xml version="1.0" encoding="UTF-8"?><svg xmlns="http://www.w3.org/2000/svg" xmlns:xlink="http://www.w3.org/1999/xlink" contentScriptType="text/ecmascript" width="375" zoomAndPan="magnify" contentStyleType="text/css" viewBox="0 0 375 374.999991" height="374.999991" preserveAspectRatio="xMidYMid meet" version="1.0"><defs><clipPath id="clip-0"><path d="M 99.066406 75.613281 L 276.066406 75.613281 L 276.066406 299.113281 L 99.066406 299.113281 Z M 99.066406 75.613281 " clip-rule="nonzero"/></clipPath></defs><path fill="rgb(15.289307%, 17.248535%, 20.388794%)" d="M 187.5 0 C 83.945312 0 0 83.945312 0 187.5 C 0 291.054688 83.945312 375 187.5 375 C 291.054688 375 375 291.054688 375 187.5 C 375 83.945312 291.054688 0 187.5 0 Z M 187.5 0 " fill-opacity="1" fill-rule="nonzero"/><g clip-path="url(#clip-0)"><path fill="rgb(100%, 100%, 100%)" d="M 141.675781 75.617188 L 99.074219 225.917969 L 143.472656 226.109375 L 127.816406 299.125 L 198.355469 193.675781 L 150.148438 193.777344 L 171.125 125.546875 L 223.105469 125.363281 C 223.507812 125.363281 223.90625 125.402344 224.300781 125.480469 C 224.695312 125.558594 225.082031 125.675781 225.453125 125.828125 C 225.824219 125.984375 226.179688 126.171875 226.515625 126.394531 C 226.847656 126.617188 227.160156 126.871094 227.445312 127.15625 C 227.730469 127.441406 227.984375 127.75 228.207031 128.085938 C 228.429688 128.417969 228.621094 128.773438 228.773438 129.144531 C 228.929688 129.515625 229.042969 129.898438 229.125 130.292969 C 229.203125 130.6875 229.242188 131.085938 229.242188 131.488281 C 229.242188 131.890625 229.199219 132.292969 229.121094 132.6875 C 229.042969 133.085938 228.925781 133.46875 228.769531 133.84375 C 228.613281 134.214844 228.421875 134.570312 228.195312 134.90625 C 227.96875 135.238281 227.710938 135.550781 227.425781 135.835938 C 227.136719 136.117188 226.824219 136.371094 226.484375 136.59375 C 226.148438 136.816406 225.792969 137.003906 225.417969 137.15625 C 225.039062 137.308594 224.65625 137.425781 224.257812 137.5 C 223.859375 137.574219 223.457031 137.613281 223.050781 137.609375 L 180.859375 137.632812 L 167.113281 182.144531 L 222.703125 182.144531 C 252.335938 182.144531 276.3125 158.035156 276.070312 128.449219 C 275.816406 99.199219 251.992188 75.617188 222.683594 75.617188 Z M 141.675781 75.617188 " fill-opacity="1" fill-rule="nonzero"/></g></svg>